<svg xmlns="http://www.w3.org/2000/svg" width="13.41" height="12.739" viewBox="0 0 13.41 12.739">
  <path id="Icon_material-next-week" data-name="Icon material-next-week" d="M15.069,7.182H12.387V5.841A1.351,1.351,0,0,0,11.046,4.5H8.364A1.345,1.345,0,0,0,7.023,5.841V7.182H4.341A1.345,1.345,0,0,0,3,8.523V15.9a1.345,1.345,0,0,0,1.341,1.341H15.069A1.345,1.345,0,0,0,16.41,15.9V8.523A1.345,1.345,0,0,0,15.069,7.182Zm-6.7-1.341h2.682V7.182H8.364Zm.67,9.052-.67-.67,2.011-2.011L8.364,10.2l.67-.67,2.682,2.682Z" transform="translate(-3 -4.5)" fill="#8fb946"/>
</svg>
