<svg xmlns="http://www.w3.org/2000/svg" width="12.896" height="9.289" viewBox="0 0 12.896 9.289">
  <path id="Path_73" data-name="Path 73" d="M170.105,186.833c-2.719,2.549-5.379,5.012-7.9,7.312a1.016,1.016,0,0,1-.734.314,1.06,1.06,0,0,1-.695-.472c-.983-1.3-1.985-2.693-2.988-4.141a.988.988,0,0,1-.19-.747.93.93,0,0,1,.419-.59,1,1,0,0,1,.531-.183,1.009,1.009,0,0,1,.78.459c.452.59.885,1.192,1.343,1.828.2.282.406.57.622.865l.413.563,1.953-1.8c1.2-1.107,2.378-2.195,3.558-3.283.177-.164.354-.328.531-.5.347-.328.7-.662,1.061-.976a.969.969,0,0,1,1.4-.02A.9.9,0,0,1,170.105,186.833Z" transform="translate(-157.583 -185.174)" fill="#fff"/>
</svg>
