<svg xmlns="http://www.w3.org/2000/svg" width="14.005" height="16" viewBox="0 0 14.005 16">
  <g id="delete" transform="translate(-106.1 -11)">
    <path id="Path_32" data-name="Path 32" d="M111.373,249.887a1.953,1.953,0,0,0,1.91,1.964h6.366a1.954,1.954,0,0,0,1.91-1.964l1.273-10.287H110.1Zm7.1-8.292h1.249v8.261h-1.249Zm-2.761,0h1.51v8.261h-1.51Zm-2.5,0h1.249v8.261h-1.249Z" transform="translate(-3.363 -224.851)" fill="#333131"/>
    <path id="Path_33" data-name="Path 33" d="M84.15,11.249H80.011S79.725,10,79.374,10H76.829c-.351,0-.637,1.249-.637,1.249H72.055a.984.984,0,0,0-.955.991v1h14v-1A.986.986,0,0,0,84.15,11.249Z" transform="translate(35 1)" fill="#333131"/>
  </g>
</svg>
