<svg xmlns="http://www.w3.org/2000/svg" width="17.018" height="17.018" viewBox="0 0 17.018 17.018">
  <path id="Icon_awesome-download" data-name="Icon awesome-download" d="M7.179,0H9.838a.8.8,0,0,1,.8.8V6.382h2.915a.664.664,0,0,1,.469,1.133L8.964,12.574a.644.644,0,0,1-.907,0L2.995,7.515a.664.664,0,0,1,.469-1.133H6.382V.8A.8.8,0,0,1,7.179,0Zm9.838,12.5V16.22a.8.8,0,0,1-.8.8H.8a.8.8,0,0,1-.8-.8V12.5a.8.8,0,0,1,.8-.8H5.674L7.3,13.328a1.7,1.7,0,0,0,2.413,0L11.344,11.7H16.22A.8.8,0,0,1,17.018,12.5ZM12.9,15.422a.665.665,0,1,0-.665.665A.667.667,0,0,0,12.9,15.422Zm2.127,0a.665.665,0,1,0-.665.665A.667.667,0,0,0,15.023,15.422Z" fill="#0057b1"/>
</svg>
