<svg xmlns="http://www.w3.org/2000/svg" width="217.675" height="121.046" viewBox="0 0 217.675 121.046"><g transform="translate(-8.1 1.492)"><g transform="translate(8.1 17.943)"><path d="M38.933,127.014V109.821H8.1v-8.647L40.307,56.5h7.474v45.613H58.137v7.708H47.781v17.193Zm-.168-24.868V70.274L16.244,102.146Z" transform="translate(-8.1 -56.5)" fill="#0c5db8"/><path d="M539.133,127.014V109.821H508.3v-8.647L540.507,56.5h7.474v45.613h10.356v7.708H547.981v17.193ZM539,102.146V70.274l-22.521,31.872Z" transform="translate(-340.662 -56.5)" fill="#0c5db8"/></g><g transform="translate(83.486 36.143)"><g transform="translate(32.111 8.598)"><path d="M93.276,45.077A1.659,1.659,0,0,1,91.6,43.4V26.276a1.676,1.676,0,1,1,3.351,0V43.4A1.681,1.681,0,0,1,93.276,45.077Z" transform="translate(-91.6 -24.6)" fill="#0c5db8"/></g><g transform="translate(32.111 34.269)"><path d="M94.348,105.624a1.7,1.7,0,0,1-1.609-1.139,1.688,1.688,0,0,1,.536-3.284h0a2.761,2.761,0,0,1,2.748,2.748,1.659,1.659,0,0,1-1.676,1.676Zm-1.072-1.072Z" transform="translate(-91.6 -101.2)" fill="#0c5db8"/></g><g transform="translate(31.038 34.269)"><path d="M90.076,105.624h0a1.659,1.659,0,0,1-1.676-1.676,2.761,2.761,0,0,1,2.748-2.748h0a1.659,1.659,0,0,1,1.676,1.676,1.7,1.7,0,0,1-1.139,1.609A1.7,1.7,0,0,1,90.076,105.624Z" transform="translate(-88.4 -101.2)" fill="#0c5db8"/></g><g transform="translate(31.038 35.342)"><path d="M91.148,108.824h0a2.761,2.761,0,0,1-2.748-2.748,1.659,1.659,0,0,1,1.676-1.676h0a1.7,1.7,0,0,1,1.609,1.139,1.688,1.688,0,0,1-.536,3.284Z" transform="translate(-88.4 -104.4)" fill="#0c5db8"/></g><g transform="translate(32.111 35.342)"><path d="M93.276,108.824a1.659,1.659,0,0,1-1.676-1.676,1.7,1.7,0,0,1,1.139-1.609,1.672,1.672,0,0,1,1.609-1.139h0a1.659,1.659,0,0,1,1.676,1.676,2.761,2.761,0,0,1-2.748,2.748Z" transform="translate(-91.6 -104.4)" fill="#0c5db8"/></g><g transform="translate(8.55 0.018)"><path d="M46.536,49.472A25.236,25.236,0,1,1,71.772,24.236,25.274,25.274,0,0,1,46.536,49.472Zm0-47.121A21.885,21.885,0,1,0,68.421,24.236,21.912,21.912,0,0,0,46.536,2.351Z" transform="translate(-21.3 1)" fill="#0c5db8"/></g><g transform="translate(53.944 0.025)"><path d="M158.44,49.486a1.676,1.676,0,0,1-1.139-2.916,30.418,30.418,0,0,0,0-44.641,1.722,1.722,0,0,1-.1-2.38,1.722,1.722,0,0,1,2.38-.1,33.822,33.822,0,0,1,0,49.6A1.859,1.859,0,0,1,158.44,49.486Z" transform="translate(-156.746 0.979)" fill="#0c5db8"/></g><g transform="translate(0 0)"><path d="M7.723,49.437A1.679,1.679,0,0,1,6.584,49c-.637-.57-1.24-1.207-1.81-1.81A33.894,33.894,0,0,1,6.584-.6a1.662,1.662,0,0,1,2.38.1,1.662,1.662,0,0,1-.1,2.38,30.443,30.443,0,0,0-1.609,43c.536.57,1.072,1.106,1.642,1.642A1.722,1.722,0,0,1,9,48.9,1.894,1.894,0,0,1,7.723,49.437Z" transform="translate(4.212 1.054)" fill="#0c5db8"/></g></g><g transform="translate(58.671 118.862) rotate(-88)"><g transform="translate(2.818 15.383)"><path d="M0,.838H0a.808.808,0,0,1,.235-.6A.785.785,0,0,1,.8,0a.874.874,0,0,1,.57.235A.785.785,0,0,1,1.609.8a.874.874,0,0,1-.235.57.785.785,0,0,1-.57.235.874.874,0,0,1-.57-.235A.625.625,0,0,1,0,.838ZM1.005.8A.254.254,0,0,0,.938.67.254.254,0,0,0,.8.6.174.174,0,0,0,.67.67.254.254,0,0,0,.6.8.174.174,0,0,0,.67.938c.034.067.067.067.134.067A.174.174,0,0,0,.938.938h0A.174.174,0,0,0,1.005.8Z" fill="#3a4352"/></g><g transform="translate(15.318 2.849)"><path d="M0,.838a.808.808,0,0,1,.235-.6h0A.785.785,0,0,1,.8,0a.809.809,0,0,1,.57.235A.785.785,0,0,1,1.609.8a.809.809,0,0,1-.235.57.8.8,0,0,1-1.139,0A.791.791,0,0,1,0,.838ZM1.005.8A.254.254,0,0,0,.938.67.254.254,0,0,0,.8.6.237.237,0,0,0,.6.8.254.254,0,0,0,.67.938.254.254,0,0,0,.8,1.005.254.254,0,0,0,.938.938h0c.067,0,.067-.067.067-.134Z" fill="#3a4352"/></g><g transform="translate(0 0)"><path d="M0,16.321a3.632,3.632,0,0,1,.871-2.48,3.681,3.681,0,0,1,4.927-.57l1.307-.3L8.146,4.625A2.432,2.432,0,0,1,9.99,2.581l2.949-.67A3.616,3.616,0,0,1,16.123,0,3.656,3.656,0,0,1,18.5.871a3.56,3.56,0,0,1,1.24,2.48,3.633,3.633,0,0,1-5.8,3.184l-1.307.3-1.005,8.412a2.432,2.432,0,0,1-1.843,2.044l-2.949.67A4.268,4.268,0,0,1,6.4,18.6a3.723,3.723,0,0,1-5.161.369A3.661,3.661,0,0,1,0,16.321ZM18.77,3.586v-.1a2.7,2.7,0,0,0-.9-1.81,2.629,2.629,0,0,0-1.709-.637h0a2.576,2.576,0,0,0-2.38,1.542.532.532,0,0,1-.335.268l-3.184.7A1.391,1.391,0,0,0,9.185,4.725L8.113,13.439a.535.535,0,0,1-.4.436l-1.91.4a.508.508,0,0,1-.436-.1,2.65,2.65,0,0,0-1.91-.637,2.555,2.555,0,0,0-1.776.9A2.621,2.621,0,0,0,1.913,18.2a2.651,2.651,0,0,0,3.72-.3,2.549,2.549,0,0,0,.4-.637.532.532,0,0,1,.335-.268l3.184-.7a1.391,1.391,0,0,0,1.072-1.173L11.7,6.4a.535.535,0,0,1,.4-.436l1.91-.4a.508.508,0,0,1,.436.1,2.679,2.679,0,0,0,3.72-.268A2.689,2.689,0,0,0,18.77,3.586ZM16.123.536Z" fill="#3a4352"/></g></g><g transform="translate(150.998 -1.492)"><g transform="translate(2.866 15.454)"><path d="M8.8,47a.735.735,0,0,1-.57-.235A.785.785,0,0,1,8,46.2a.809.809,0,0,1,.235-.57.8.8,0,0,1,1.139,0,.81.81,0,0,1,0,1.173A.91.91,0,0,1,8.8,47Zm0-1.005a.254.254,0,0,0-.134.067.19.19,0,0,0,.268.268h0a.174.174,0,0,0,.067-.134.237.237,0,0,0-.2-.2Zm-.235-.034Z" transform="translate(-8 -45.387)" fill="#3a4352"/></g><g transform="translate(0 0)"><path d="M3.119,19.19a3.821,3.821,0,0,1-1.341-.268,3.649,3.649,0,0,1,2.346-6.9L8.85,7.293c-.067-.134-.1-.235-.168-.369a5.514,5.514,0,0,1,.034-4.256,5.555,5.555,0,0,1,10.255.067.567.567,0,0,1-.034.469.511.511,0,0,1-.4.235H14.447a1.38,1.38,0,0,0-1.374,1.374,1.4,1.4,0,0,0,1.374,1.374H18.5a.406.406,0,0,1,.4.235.466.466,0,0,1,.034.469,5.045,5.045,0,0,1-.369.737A5.544,5.544,0,0,1,11.33,9.773L6.6,14.5a3.522,3.522,0,0,1-.1,2.346A3.685,3.685,0,0,1,4.56,18.855,3.135,3.135,0,0,1,3.119,19.19Zm0-6.3a2.681,2.681,0,0,0-2.48,1.676,2.61,2.61,0,0,0,1.508,3.418,2.61,2.61,0,0,0,3.418-1.508,2.772,2.772,0,0,0,0-1.944.511.511,0,0,1,.1-.536l5.228-5.228a.462.462,0,0,1,.6-.067,4.567,4.567,0,0,0,6.167-1.508H14.447a2.38,2.38,0,0,1,0-4.759h3.217A4.471,4.471,0,0,0,15.586.657,4.644,4.644,0,0,0,12.1.623,4.551,4.551,0,0,0,9.621,3.07a4.644,4.644,0,0,0-.034,3.485,1.863,1.863,0,0,0,.3.57.563.563,0,0,1-.067.6L4.627,12.956a.463.463,0,0,1-.536.1A2.584,2.584,0,0,0,3.119,12.889Z" transform="translate(0.551 0.726)" fill="#3a4352"/></g></g><g transform="translate(90.511 9.364)"><circle cx="1.676" cy="1.676" r="1.676" transform="translate(0)" fill="#ffc503"/></g><g transform="translate(153.853 95.16)"><circle cx="1.676" cy="1.676" r="1.676" fill="#ffc503"/></g><g transform="translate(124.025 104.209)"><circle cx="1.341" cy="1.341" r="1.341" fill="#0174f1"/></g><g transform="translate(130.058 21.764)"><circle cx="1.676" cy="1.676" r="1.676" transform="translate(0)" fill="#0174f1"/></g><g transform="translate(69.062 42.208)"><circle cx="1.676" cy="1.676" r="1.676" fill="#3a4352"/></g><g transform="translate(162.567 77.398)"><circle cx="1.341" cy="1.341" r="1.341" fill="#3a4352"/></g><g transform="translate(85.819 98.176)"><circle cx="1.341" cy="1.341" r="1.341" transform="translate(0)" fill="#0c5db8"/></g><g transform="translate(170.945 12.715)"><circle cx="1.341" cy="1.341" r="1.341" fill="#0c5db8"/></g><g transform="translate(163.907 32.824)"><circle cx="1.005" cy="1.005" r="1.005" fill="#3a4352"/></g><g transform="translate(155.194 61.311)"><circle cx="1.005" cy="1.005" r="1.005" fill="#0174f1"/></g><g transform="translate(78.446 76.057)"><circle cx="0.67" cy="0.67" r="0.67" fill="#3a4352"/></g><g transform="translate(108.274 95.16)"><circle cx="1.005" cy="1.005" r="1.005" transform="translate(0)" fill="#3a4352"/></g><g transform="translate(63.365 63.322)"><circle cx="1.676" cy="1.676" r="1.676" fill="#0174f1"/></g><g transform="translate(104.922 25.115)"><circle cx="0.67" cy="0.67" r="0.67" transform="translate(0)" fill="#3a4352"/></g></g></svg>