<svg id="file" xmlns="http://www.w3.org/2000/svg" width="23.724" height="23.724" viewBox="0 0 23.724 23.724">
  <path id="Path_74" data-name="Path 74" d="M18.781,8V5.931a.989.989,0,0,0-.29-.7L13.549.289a.989.989,0,0,0-.7-.29H.988A.989.989,0,0,0,0,.988V22.735a.989.989,0,0,0,.988.988h16.8a.989.989,0,0,0,.988-.988V19.68A5.923,5.923,0,0,0,18.781,8ZM1.977,21.747V5.931H5.931a.988.988,0,1,0,0-1.977H1.977V1.977H12.441L16.8,6.34V8a5.923,5.923,0,0,0,0,11.683v2.067Zm15.816-3.954a3.954,3.954,0,1,1,3.954-3.954A3.958,3.958,0,0,1,17.793,17.793Zm0,0" transform="translate(0 0)" fill="#b5b5b5"/>
  <path id="Path_75" data-name="Path 75" d="M275.408,179.07l-1.431-.715v-1.366a.989.989,0,0,0-1.977,0v1.977a.989.989,0,0,0,.546.884l1.977.988a.989.989,0,0,0,.885-1.768Zm0,0" transform="translate(-255.196 -165.127)" fill="#b5b5b5"/>
</svg>
