<svg xmlns="http://www.w3.org/2000/svg" width="13.138" height="16.32" viewBox="0 0 13.138 16.32">
  <g id="Icon_feather-bookmark" data-name="Icon feather-bookmark" transform="translate(-6.5 -3.5)" fill="#0057b1" stroke-linecap="round" stroke-linejoin="round">
    <path d="M 19.13769721984863 19.7914867401123 L 18.34707832336426 19.22676658630371 L 13.06884765625 15.45660305023193 L 7.7906174659729 19.22676658630371 L 6.999997615814209 19.7914867401123 L 6.999997615814209 18.81989669799805 L 6.999997615814209 6.091097354888916 C 6.999997615814209 4.938057422637939 7.938057422637939 3.99999737739563 9.091097831726074 3.99999737739563 L 17.04659843444824 3.99999737739563 C 18.19963836669922 3.99999737739563 19.13769721984863 4.938057422637939 19.13769721984863 6.091097354888916 L 19.13769721984863 18.81989669799805 L 19.13769721984863 19.7914867401123 Z" stroke="none"/>
    <path d="M 18.63769721984863 18.81989669799805 L 18.63769721984863 6.091097354888916 C 18.63769721984863 5.212357521057129 17.92533683776855 4.499997615814209 17.04659843444824 4.499997615814209 L 9.091097831726074 4.499997615814209 C 8.212357521057129 4.499997615814209 7.499997615814209 5.212357521057129 7.499997615814209 6.091097354888916 L 7.499997615814209 18.81989669799805 L 13.06884765625 14.84214782714844 L 18.63769721984863 18.81989669799805 M 18.63779640197754 19.81990051269531 C 18.43302726745605 19.81990051269531 18.22931480407715 19.7570972442627 18.05645751953125 19.63362693786621 L 13.06884765625 16.07104873657227 L 8.08123779296875 19.63362693786621 C 7.90839958190918 19.75708389282227 7.704645156860352 19.81989669799805 7.499898433685303 19.81990051269531 C 7.343550682067871 19.81990432739258 7.186631202697754 19.78328132629395 7.042417526245117 19.70906829833984 C 6.709347724914551 19.53765678405762 6.499997615814209 19.19448661804199 6.499997615814209 18.81989669799805 L 6.499997615814209 6.091097354888916 C 6.499997615814209 4.662357330322266 7.662357807159424 3.49999737739563 9.091097831726074 3.49999737739563 L 17.04659843444824 3.49999737739563 C 18.47533798217773 3.49999737739563 19.63769721984863 4.662357330322266 19.63769721984863 6.091097354888916 L 19.63769721984863 18.81989669799805 C 19.63769721984863 19.19448661804199 19.42834854125977 19.53765678405762 19.09527778625488 19.70906829833984 C 18.95108413696289 19.78326988220215 18.79412269592285 19.81990051269531 18.63779640197754 19.81990051269531 Z" stroke="none" fill="#0057b1"/>
  </g>
</svg>
