<svg xmlns="http://www.w3.org/2000/svg" width="20.348" height="21.815" viewBox="0 0 20.348 21.815">
  <g id="kisspng-computer-icons-iconfinder-symbol-apple-icon-image-setting-svg-png-icon-free-download-247372-onl-5b65039c8deff9.0077073315333467165814" transform="translate(-77.602 -162.2)">
    <path id="Path_1" data-name="Path 1" d="M93.163,162.2c.19.035.389.056.575.108a3.566,3.566,0,0,1,2.646,2.659c.03.112.074.143.182.138.229-.009.458-.009.692,0a.725.725,0,0,1-.013,1.448c-.238.009-.476,0-.713,0-.082,0-.112.026-.134.108a3.536,3.536,0,0,1-2.759,2.711,3.618,3.618,0,0,1-4.3-2.681c-.026-.108-.065-.143-.177-.143q-5.37.007-10.74,0a1.083,1.083,0,0,1-.437-.091.706.706,0,0,1-.368-.791.723.723,0,0,1,.666-.566c.069,0,.134,0,.2,0q5.331,0,10.658,0c.112,0,.16-.026.19-.143a3.63,3.63,0,0,1,3.139-2.746.819.819,0,0,0,.1-.022C92.77,162.2,92.964,162.2,93.163,162.2Zm-.307,5.811a2.179,2.179,0,1,0-2.171-2.162A2.179,2.179,0,0,0,92.856,168.016Z" fill="#0057b1"/>
    <path id="Path_2" data-name="Path 2" d="M91.868,334.7q-2.685,0-5.366,0c-.125,0-.177.026-.208.16a3.626,3.626,0,0,1-7.048-.048.122.122,0,0,0-.143-.112c-.229,0-.458,0-.692,0a.724.724,0,0,1-.713-.631.712.712,0,0,1,.527-.791,1.856,1.856,0,0,1,.381-.03c.169,0,.342,0,.51,0a.111.111,0,0,0,.13-.1,3.543,3.543,0,0,1,2.845-2.733,3.609,3.609,0,0,1,4.177,2.542c.026.1.035.225.1.272s.19.017.285.017H97.2a.768.768,0,0,1,.718.342.678.678,0,0,1,.026.731.7.7,0,0,1-.657.385c-.783,0-1.57,0-2.352,0Zm-6.914-.722a2.177,2.177,0,1,0-2.14,2.175A2.178,2.178,0,0,0,84.954,333.983Z" transform="translate(-0.088 -160.869)" fill="#0057b1"/>
    <path id="Path_3" data-name="Path 3" d="M82.332,502.933h-3.9a.728.728,0,1,1-.043-1.453c.649,0,1.3,0,1.946,0h4.99c.337,0,.67,0,1.007,0,.078,0,.108-.022.125-.1a3.627,3.627,0,0,1,7.061-.017c.022.091.052.121.147.121,1.159,0,2.318,0,3.476,0a.87.87,0,0,1,.527.134.719.719,0,0,1,.285.787.7.7,0,0,1-.649.528c-.4.013-.809.009-1.211.009H93.669c-.091,0-.13.022-.151.117a3.626,3.626,0,0,1-7.061-.009c-.022-.1-.074-.1-.151-.1C84.978,502.933,83.655,502.933,82.332,502.933Zm7.653-2.906a2.181,2.181,0,1,0,2.188,2.171A2.179,2.179,0,0,0,89.985,500.028Z" transform="translate(-0.034 -321.834)" fill="#0057b1"/>
  </g>
</svg>
