<svg id="Group_2849" data-name="Group 2849" xmlns="http://www.w3.org/2000/svg" width="19.481" height="19.479" viewBox="0 0 19.481 19.479">
  <g id="Group_2837" data-name="Group 2837" transform="translate(0 15.356)">
    <g id="Group_2836" data-name="Group 2836">
      <path id="Path_18911" data-name="Path 18911" d="M11.2,387.484H1.463A1.463,1.463,0,0,0,0,388.947v2.66H12.662v-2.66A1.463,1.463,0,0,0,11.2,387.484Z" transform="translate(0 -387.484)" fill="#8fb946"/>
    </g>
  </g>
  <g id="Group_2839" data-name="Group 2839" transform="translate(2.387)">
    <g id="Group_2838" data-name="Group 2838" transform="translate(0 0)">
      <path id="Path_18912" data-name="Path 18912" d="M77.063,15.593,68.175,6.7l1.717-1.714a.721.721,0,0,0,.986-1.05l-3.7-3.7A.719.719,0,1,0,66.16,1.259l-.03-.03-4.7,4.7.03.033a.719.719,0,1,0-1.017,1.017l3.7,3.7a.721.721,0,0,0,1.02-1.02l.03.03,1.717-1.714,8.885,8.885a.9.9,0,0,0,1.269-1.266Z" transform="translate(-60.231 -0.03)" fill="#8fb946"/>
    </g>
  </g>
</svg>
