<svg id="Слой_1" data-name="Слой 1" xmlns="http://www.w3.org/2000/svg" viewBox="0 0 30.99082 19.24628"><defs><style>.cls-1{fill:#b5d8ff; colorFilter:black}</style></defs><title>3</title><g id="live-01"><g id="Group_350" data-name="Group 350"><g id="Group_349" data-name="Group 349"><g id="Group_348" data-name="Group 348"><g id="Path_123" data-name="Path 123"><path class="cls-1" d="M4.62832,18.46217a.73478.73478,0,0,1-.59315.63262.69647.69647,0,0,1-.79861-.32154A14.53626,14.53626,0,0,1,.47278,12.4761c-.12652-.71039-.195-1.44051-.24376-1.9733l-.00929-.0975c-.00928-.12653-.01973-.23215-.029-.34011A15.72722,15.72722,0,0,1,3.18781.53647.758.758,0,0,1,4.02472.1569a.72315.72315,0,0,1,.6036.61288c.058.224-.01973.43761-.27278.79861a13.56238,13.56238,0,0,0-2.599,8.14625,13.89546,13.89546,0,0,0,.66163,4.18456,13.638,13.638,0,0,0,1.91759,3.76669C4.59,18.03385,4.66779,18.2393,4.62832,18.46217Z"/><path class="cls-1" d="M3.839,19.16127a.73114.73114,0,0,1-.63477-.36914A14.63225,14.63225,0,0,1,.43564,12.48256C.30575,11.755.23642,11.00405.1915,10.507l-.00879-.09864c-.00879-.11621-.01856-.21484-.02735-.3125l-.002-.02734A15.86756,15.86756,0,0,1,3.15732.51381a.78539.78539,0,0,1,.876-.39258.7521.7521,0,0,1,.63184.64356c.05957.22852-.0127.44531-.2793.82519A13.6183,13.6183,0,0,0,1.794,9.715a13.84989,13.84989,0,0,0,.66015,4.17286A13.53278,13.53278,0,0,0,4.3663,17.6437c.26465.38476.33984.59179.29883.82421a.77132.77132,0,0,1-.62305.66407A.7298.7298,0,0,1,3.839,19.16127ZM3.85556.17592a.72207.72207,0,0,0-.63477.37793A15.79848,15.79848,0,0,0,.22763,10.06459l.00293.02442c.00879.09863.01758.19726.02637.31347l.00879.09766c.04589.49512.11425,1.24512.24414,1.96875a14.56137,14.56137,0,0,0,2.75683,6.28223.65838.65838,0,0,0,.75781.30761.69738.69738,0,0,0,.56641-.60156v-.002c.03809-.209-.03418-.40332-.28613-.76758a13.68041,13.68041,0,0,1-1.92285-3.77637A13.93677,13.93677,0,0,1,1.71982,9.715,13.68482,13.68482,0,0,1,4.32529,1.546c.251-.3584.32031-.55859.2666-.7666a.68164.68164,0,0,0-.57325-.585A.72014.72014,0,0,0,3.85556.17592Z"/></g></g></g></g><g id="Group_353" data-name="Group 353"><g id="Group_352" data-name="Group 352"><g id="Group_351" data-name="Group 351"><g id="Path_124" data-name="Path 124"><path class="cls-1" d="M30.80009,9.09944a15.95923,15.95923,0,0,1-2.99826,9.62506.751.751,0,0,1-.83692.35984.72316.72316,0,0,1-.60359-.61289.90306.90306,0,0,1,.253-.74986A13.83286,13.83286,0,0,0,26.6631,1.5649c-.26235-.37028-.34011-.57458-.29253-.79861A.71157.71157,0,0,1,26.96487.143a.69633.69633,0,0,1,.195-.01973.70692.70692,0,0,1,.60358.34823,14.3805,14.3805,0,0,1,2.63727,5.80383c.17527.84619.26235,1.70284.3401,2.32153l.00928.12652C30.77108,8.85568,30.79081,8.99265,30.80009,9.09944Z"/><path class="cls-1" d="M27.14657,19.1437a.85022.85022,0,0,1-.82226-.667.93218.93218,0,0,1,.26367-.78125A13.78243,13.78243,0,0,0,26.6329,1.58608c-.27343-.38379-.34863-.59277-.2998-.82715a.75309.75309,0,0,1,.626-.65332A.68064.68064,0,0,1,27.1622.08608.74582.74582,0,0,1,27.796.45327a14.5027,14.5027,0,0,1,2.6416,5.81445c.14453.69531.22949,1.40137.29785,1.96875.01465.125.0293.24414.043.35547l.00879.1289c.02051.12891.041.26563.0498.376v.002a16.09565,16.09565,0,0,1-3.00488,9.64746A.78557.78557,0,0,1,27.14657,19.1437ZM27.131.1603a.65942.65942,0,0,0-.15723.01855.67956.67956,0,0,0-.5664.5918c-.04493.21387.02832.4082.28613.77246a13.85856,13.85856,0,0,1-.04883,16.20117.86363.86363,0,0,0-.24609.72266.68055.68055,0,0,0,.57226.58008.71529.71529,0,0,0,.79883-.34082,16.031,16.031,0,0,0,2.99317-9.6045c-.00879-.10742-.0293-.24218-.04981-.37207l-.00879-.12988c-.01465-.10937-.02832-.22852-.04394-.35449-.06739-.56543-.15235-1.27051-.29688-1.96192A14.42676,14.42676,0,0,0,27.73349.49428a.67329.67329,0,0,0-.57324-.334Z"/></g></g></g></g><g id="Group_356" data-name="Group 356"><g id="Group_355" data-name="Group 355"><g id="Group_354" data-name="Group 354"><g id="Path_125" data-name="Path 125"><path class="cls-1" d="M9.76818,15.48365a.67207.67207,0,0,1-.26233.52583.84038.84038,0,0,1-1.17678-.16643q-.021-.028-.0397-.0576A9.33723,9.33723,0,0,1,5.98293,9.62411,9.5438,9.5438,0,0,1,8.30446,3.42446a.98087.98087,0,0,1,.71039-.38886.71967.71967,0,0,1,.47708.18456.82066.82066,0,0,1,.03673,1.16q-.01776.01895-.03673.03673A8.24147,8.24147,0,0,0,7.536,9.61365a8.15326,8.15326,0,0,0,1.94661,5.18746A1.16886,1.16886,0,0,1,9.76818,15.48365Z"/><path class="cls-1" d="M9.002,16.215a.87747.87747,0,0,1-.70312-.3496c-.01367-.01954-.02832-.03907-.041-.05957A9.37045,9.37045,0,0,1,5.9454,9.62416a9.5866,9.5866,0,0,1,2.33106-6.2246,1.01444,1.01444,0,0,1,.73535-.40137.76518.76518,0,0,1,.50586.19336.86014.86014,0,0,1,.03808,1.21386.3585.3585,0,0,1-.03808.03907A8.22487,8.22487,0,0,0,7.57333,9.6144a8.133,8.133,0,0,0,1.9375,5.16211,1.2152,1.2152,0,0,1,.29492.7041v.00391a.70748.70748,0,0,1-.27734.55468A.8684.8684,0,0,1,9.002,16.215Zm.0127-13.14257a.94362.94362,0,0,0-.67969.374A9.51732,9.51732,0,0,0,6.01962,9.62416a9.30263,9.30263,0,0,0,2.29785,6.13672c.01563.02246.02832.042.042.05957a.805.805,0,0,0,1.124.15918.63649.63649,0,0,0,.24805-.49511,1.146,1.146,0,0,0-.27735-.65918A8.20653,8.20653,0,0,1,7.49911,9.61342,8.2977,8.2977,0,0,1,9.464,4.39272l.03711-.03809a.78431.78431,0,0,0-.03418-1.10742A.68939.68939,0,0,0,9.01474,3.07241Z"/></g></g></g></g><g id="Group_359" data-name="Group 359"><g id="Group_358" data-name="Group 358"><g id="Group_357" data-name="Group 357"><g id="Path_126" data-name="Path 126"><path class="cls-1" d="M24.98932,9.64383a9.458,9.458,0,0,1-2.30644,6.17991.79739.79739,0,0,1-1.18746.2043A.81253.81253,0,0,1,21.44675,14.88q.02326-.02535.04867-.04868a7.89321,7.89321,0,0,0-.00928-10.42368.78816.78816,0,0,1,.01973-1.19674.73477.73477,0,0,1,.4643-.17528.90307.90307,0,0,1,.68137.35984A9.44856,9.44856,0,0,1,24.98932,9.64383Z"/><path class="cls-1" d="M21.99911,16.24623a.8278.8278,0,0,1-.43066-.12109.934.934,0,0,1-.09668-.06738.84969.84969,0,0,1-.05273-1.20313c.0166-.01757.0332-.03418.05078-.05078A7.87428,7.87428,0,0,0,21.4581,4.43178a.82373.82373,0,0,1-.06738-1.16113.78981.78981,0,0,1,.09179-.08887.77377.77377,0,0,1,.48633-.18359.93884.93884,0,0,1,.71289.375A9.51331,9.51331,0,0,1,22.711,15.8478a.83359.83359,0,0,1-.71192.39843ZM21.96786,3.07241a.70062.70062,0,0,0-.4375.167.716.716,0,0,0-.083.08008.75093.75093,0,0,0,.06347,1.05957,7.94983,7.94983,0,0,1,.0127,10.47656q-.02784.02637-.04981.0498a.777.777,0,0,0,.04688,1.09571.95754.95754,0,0,0,.08691.05957.73871.73871,0,0,0,.57422.08789.75065.75065,0,0,0,.46875-.34473A9.42644,9.42644,0,0,0,24.95224,9.6437h0a9.40072,9.40072,0,0,0-2.3291-6.22364A.86976.86976,0,0,0,21.96786,3.07241Z"/></g></g></g></g><g id="Path_127" data-name="Path 127"><path class="cls-1" d="M15.49077,5.98511A3.62044,3.62044,0,1,0,19.1112,9.60554a3.62043,3.62043,0,0,0-3.62043-3.62043Zm0,5.82937A2.20546,2.20546,0,1,1,17.69621,9.609h0a2.21358,2.21358,0,0,1-2.20544,2.20543Z"/><path class="cls-1" d="M15.49032,13.26284a3.65723,3.65723,0,1,1,3.65821-3.65723A3.66137,3.66137,0,0,1,15.49032,13.26284Zm0-7.24024a3.583,3.583,0,1,0,3.584,3.583A3.58718,3.58718,0,0,0,15.49032,6.0226Zm0,5.8291h0a2.24268,2.24268,0,1,1,2.24317-2.24316A2.24475,2.24475,0,0,1,15.49032,11.8517Zm0-4.41113a2.16846,2.16846,0,1,0,2.16895,2.16895A2.17139,2.17139,0,0,0,15.49032,7.44057Z"/></g></g></svg>