<svg xmlns="http://www.w3.org/2000/svg" width="13.837" height="13.837" viewBox="0 0 13.837 13.837">
  <path id="Icon_metro-cancel" data-name="Icon metro-cancel" d="M9.489,1.928a6.919,6.919,0,1,0,6.919,6.919A6.919,6.919,0,0,0,9.489,1.928Zm0,12.54A5.621,5.621,0,1,1,15.11,8.847a5.621,5.621,0,0,1-5.621,5.621Zm2.162-9.081L9.489,7.549,7.327,5.387l-1.3,1.3L8.192,8.847,6.03,11.009l1.3,1.3,2.162-2.162,2.162,2.162,1.3-1.3L10.786,8.847l2.162-2.162Z" transform="translate(-2.571 -1.928)" fill="#df001c"/>
</svg>
