<svg xmlns="http://www.w3.org/2000/svg" width="13.769" height="13.795" viewBox="0 0 13.769 13.795">
  <path id="Icon_feather-phone" data-name="Icon feather-phone" d="M15.936,12.579V14.5a1.284,1.284,0,0,1-1.4,1.284A12.705,12.705,0,0,1,9,13.818,12.519,12.519,0,0,1,5.144,9.966,12.705,12.705,0,0,1,3.173,4.4,1.284,1.284,0,0,1,4.451,3H6.377A1.284,1.284,0,0,1,7.661,4.1a8.243,8.243,0,0,0,.449,1.8,1.284,1.284,0,0,1-.289,1.355l-.815.815a10.272,10.272,0,0,0,3.852,3.852l.815-.815a1.284,1.284,0,0,1,1.355-.289,8.243,8.243,0,0,0,1.8.449,1.284,1.284,0,0,1,1.1,1.3Z" transform="translate(-2.667 -2.5)" fill="none" stroke="#334b4a" stroke-linecap="round" stroke-linejoin="round" stroke-width="1"/>
</svg>
