<svg id="Layer_2" xmlns="http://www.w3.org/2000/svg" width="176.305" height="171.315" viewBox="0 0 176.305 171.315">
  <g id="Group_413" data-name="Group 413">
    <g id="Group_386" data-name="Group 386">
      <g id="Group_380" data-name="Group 380" transform="translate(25.318 14.784)">
        <path id="Path_137" data-name="Path 137" d="M69.443,140.374H63.714v-101c-6.1-8.963-28.09-15.708-36.314-17.557V16c1.294.277,33.819,7.669,41.581,20.975l.37.647V140.374Z" transform="translate(-27.4 -16)" fill="#abacad"/>
      </g>
      <g id="Group_381" data-name="Group 381" transform="translate(25.318 24.579)">
        <path id="Path_138" data-name="Path 138" d="M56.053,42.955C50.139,38.7,33.876,33.345,27.5,32.421V26.6c7.023,1.016,21.715,5.359,28.645,10.257Z" transform="translate(-27.408 -26.6)" fill="#abacad"/>
        <path id="Path_139" data-name="Path 139" d="M56.045,52.508c-5.914-4.066-22.177-9.148-28.645-9.887V36.8c7.023.924,21.807,4.99,28.645,9.7Z" transform="translate(-27.4 -27.375)" fill="#abacad"/>
        <path id="Path_140" data-name="Path 140" d="M56.045,62.154c-5.914-3.973-22.177-8.593-28.645-9.333V47c7.023.924,21.807,4.62,28.645,9.148Z" transform="translate(-27.4 -28.15)" fill="#abacad"/>
        <path id="Path_141" data-name="Path 141" d="M56.045,71.707c-5.821-3.789-22.177-8.131-28.645-8.686V57.2c7.023.832,21.9,4.251,28.645,8.593Z" transform="translate(-27.4 -28.925)" fill="#abacad"/>
        <path id="Path_142" data-name="Path 142" d="M56.045,81.253c-5.821-3.7-22.177-7.669-28.645-8.131V67.3c7.023.739,21.992,3.973,28.645,8.039Z" transform="translate(-27.4 -29.692)" fill="#abacad"/>
        <path id="Path_143" data-name="Path 143" d="M56.045,90.906C50.224,87.395,33.961,83.7,27.4,83.421V77.6c7.023.647,21.992,3.6,28.645,7.392Z" transform="translate(-27.4 -30.474)" fill="#abacad"/>
        <path id="Path_144" data-name="Path 144" d="M56.045,100.452c-5.821-3.327-22.084-6.745-28.645-6.93V87.7c7.023.554,22.084,3.234,28.645,6.838Z" transform="translate(-27.4 -31.242)" fill="#abacad"/>
        <path id="Path_145" data-name="Path 145" d="M56.045,110c-5.821-3.234-22.084-6.191-28.645-6.283V97.9c7.023.462,22.177,2.864,28.645,6.283Z" transform="translate(-27.4 -32.017)" fill="#abacad"/>
        <path id="Path_146" data-name="Path 146" d="M56.045,119.65c-5.729-3.049-22.084-5.729-28.645-5.729V108.1c7.023.37,22.177,2.495,28.645,5.729Z" transform="translate(-27.4 -32.792)" fill="#abacad"/>
        <path id="Path_147" data-name="Path 147" d="M56.045,129.2c-5.729-2.957-22.084-5.267-28.645-5.082V118.3c7.023.277,22.269,2.125,28.645,5.175Z" transform="translate(-27.4 -33.566)" fill="#abacad"/>
        <path id="Path_148" data-name="Path 148" d="M56.045,138.757c-5.729-2.772-22.084-4.8-28.645-4.435V128.5c7.023.277,22.269,1.848,28.645,4.528Z" transform="translate(-27.4 -34.341)" fill="#abacad"/>
        <path id="Path_149" data-name="Path 149" d="M56.045,148.3c-5.729-2.68-22.084-4.343-28.645-3.881V138.6c7.023.185,22.362,1.478,28.645,3.973Z" transform="translate(-27.4 -35.109)" fill="#abacad"/>
        <path id="Path_150" data-name="Path 150" d="M56.045,157.955c-5.729-2.495-22.084-3.881-28.645-3.234V148.9c7.023.092,22.454,1.109,28.645,3.419Z" transform="translate(-27.4 -35.891)" fill="#abacad"/>
        <path id="Path_151" data-name="Path 151" d="M56.045,167.5c-5.729-2.31-22.084-3.327-28.645-2.68V159c7.023,0,22.454.739,28.645,2.865Z" transform="translate(-27.4 -36.658)" fill="#abacad"/>
      </g>
      <g id="Group_382" data-name="Group 382" transform="translate(0 21.715)">
        <rect id="Rectangle_109" data-name="Rectangle 109" width="4.713" height="147.845" transform="translate(0.277 0.277)" fill="#abacad"/>
        <path id="Path_152" data-name="Path 152" d="M5.267,171.807H0V23.5H5.267Zm-4.713-.554H4.713V24.054H.554Z" transform="translate(0 -23.5)" fill="#abacad"/>
      </g>
      <g id="Group_383" data-name="Group 383" transform="translate(11.366)">
        <path id="Path_153" data-name="Path 153" d="M17.313.3V171.061H12.6V.3h4.713Z" transform="translate(-12.323 -0.023)" fill="#abacad"/>
        <path id="Path_154" data-name="Path 154" d="M17.567,171.315H12.3V0h5.267Zm-4.713-.554h4.158V.554H12.854Z" transform="translate(-12.3)" fill="#abacad"/>
      </g>
      <g id="Group_384" data-name="Group 384" transform="translate(4.713 8.039)">
        <path id="Path_155" data-name="Path 155" d="M12.307,171.144,5.1,170.682V22.56L12.307,8.7Zm-6.653-.924,6.1.37V10.918l-6.1,11.828Z" transform="translate(-5.1 -8.7)" fill="#abacad"/>
      </g>
      <g id="Group_385" data-name="Group 385" transform="translate(16.078)">
        <path id="Path_156" data-name="Path 156" d="M67.02,171.315H17.4V0h.277C32.646.554,46.6,4.8,57.041,12.012,67.482,19.312,73.3,28.83,73.3,38.9v101.92H67.113v30.493Zm-49.066-.554H66.466V140.175h6.191V38.9c0-9.887-5.637-19.312-15.986-26.427C46.507,5.359,32.739,1.109,17.954.554Z" transform="translate(-17.4)" fill="#abacad"/>
      </g>
    </g>
    <g id="Group_394" data-name="Group 394" transform="translate(104.415)">
      <g id="Group_387" data-name="Group 387" transform="translate(4.528 14.784)">
        <path id="Path_157" data-name="Path 157" d="M117.9,140.374h5.729v-101c6.1-8.963,28.09-15.708,36.314-17.557V16c-1.294.277-33.819,7.669-41.581,20.975l-.37.647V140.374Z" transform="translate(-117.9 -16)" fill="#abacad"/>
      </g>
      <g id="Group_388" data-name="Group 388" transform="translate(17.926 24.579)">
        <path id="Path_158" data-name="Path 158" d="M132.492,42.955c5.914-4.251,22.177-9.61,28.552-10.534V26.6c-7.023,1.016-21.715,5.359-28.645,10.257Z" transform="translate(-132.4 -26.6)" fill="#abacad"/>
        <path id="Path_159" data-name="Path 159" d="M132.5,52.508c5.914-4.066,22.177-9.148,28.645-9.887V36.8c-7.023.924-21.807,4.99-28.645,9.7Z" transform="translate(-132.408 -27.375)" fill="#abacad"/>
        <path id="Path_160" data-name="Path 160" d="M132.5,62.154c5.914-3.973,22.177-8.593,28.645-9.333V47c-7.023.924-21.807,4.62-28.645,9.148Z" transform="translate(-132.408 -28.15)" fill="#abacad"/>
        <path id="Path_161" data-name="Path 161" d="M132.5,71.707c5.821-3.789,22.177-8.131,28.645-8.686V57.2c-7.023.832-21.9,4.251-28.645,8.593Z" transform="translate(-132.408 -28.925)" fill="#abacad"/>
        <path id="Path_162" data-name="Path 162" d="M132.5,81.253c5.821-3.7,22.177-7.669,28.645-8.131V67.3c-7.023.739-21.992,3.973-28.645,8.039Z" transform="translate(-132.408 -29.692)" fill="#abacad"/>
        <path id="Path_163" data-name="Path 163" d="M132.5,90.906c5.821-3.511,22.084-7.207,28.645-7.485V77.6c-7.023.647-21.992,3.6-28.645,7.392Z" transform="translate(-132.408 -30.474)" fill="#abacad"/>
        <path id="Path_164" data-name="Path 164" d="M132.5,100.452c5.821-3.327,22.084-6.745,28.645-6.93V87.7c-7.023.554-22.084,3.234-28.645,6.838Z" transform="translate(-132.408 -31.242)" fill="#abacad"/>
        <path id="Path_165" data-name="Path 165" d="M132.5,110c5.821-3.234,22.084-6.191,28.645-6.283V97.9c-7.023.462-22.177,2.864-28.645,6.283Z" transform="translate(-132.408 -32.017)" fill="#abacad"/>
        <path id="Path_166" data-name="Path 166" d="M132.5,119.65c5.729-3.049,22.084-5.729,28.645-5.729V108.1c-7.023.37-22.177,2.495-28.645,5.729Z" transform="translate(-132.408 -32.792)" fill="#abacad"/>
        <path id="Path_167" data-name="Path 167" d="M132.5,129.2c5.729-2.957,22.084-5.267,28.645-5.082V118.3c-7.023.277-22.269,2.125-28.645,5.175Z" transform="translate(-132.408 -33.566)" fill="#abacad"/>
        <path id="Path_168" data-name="Path 168" d="M132.4,138.757c5.729-2.772,22.084-4.8,28.645-4.435V128.5c-7.023.277-22.269,1.848-28.645,4.528Z" transform="translate(-132.4 -34.341)" fill="#abacad"/>
        <path id="Path_169" data-name="Path 169" d="M132.4,148.3c5.729-2.68,22.084-4.343,28.645-3.881V138.6c-7.023.185-22.362,1.478-28.645,3.973Z" transform="translate(-132.4 -35.109)" fill="#abacad"/>
        <path id="Path_170" data-name="Path 170" d="M132.4,157.955c5.729-2.495,22.084-3.881,28.645-3.234V148.9c-7.023.092-22.454,1.109-28.645,3.419Z" transform="translate(-132.4 -35.891)" fill="#abacad"/>
        <path id="Path_171" data-name="Path 171" d="M132.4,167.5c5.729-2.31,22.084-3.327,28.645-2.68V159c-7.023,0-22.454.739-28.645,2.865Z" transform="translate(-132.4 -36.658)" fill="#abacad"/>
      </g>
      <g id="Group_389" data-name="Group 389" transform="translate(66.623 21.715)">
        <rect id="Rectangle_110" data-name="Rectangle 110" width="4.713" height="147.845" transform="translate(0.277 0.277)" fill="#abacad"/>
        <path id="Path_172" data-name="Path 172" d="M190.367,171.807H185.1V23.5h5.267Zm-4.713-.554h4.158V24.054h-4.158Z" transform="translate(-185.1 -23.5)" fill="#abacad"/>
      </g>
      <g id="Group_390" data-name="Group 390" transform="translate(55.257 0.092)">
        <path id="Path_173" data-name="Path 173" d="M173.1.3V171.061h4.713V.3H173.1Z" transform="translate(-172.823 -0.115)" fill="#abacad"/>
        <path id="Path_174" data-name="Path 174" d="M178.067,171.323H172.8V.1h5.267V171.323Zm-4.713-.554h4.158V.562h-4.158Z" transform="translate(-172.8 -0.1)" fill="#abacad"/>
      </g>
      <g id="Group_391" data-name="Group 391" transform="translate(60.062 8.039)">
        <path id="Path_175" data-name="Path 175" d="M178,171.144V8.7l7.207,13.86V170.682Zm.462-160.227V170.5l6.1-.37V22.745Z" transform="translate(-178 -8.7)" fill="#abacad"/>
      </g>
      <g id="Group_392" data-name="Group 392" transform="translate(0 147.937)">
        <path id="Path_176" data-name="Path 176" d="M113.554,183.478H113V160.1h.554Z" transform="translate(-113 -160.1)" fill="#abacad"/>
      </g>
      <g id="Group_393" data-name="Group 393">
        <path id="Path_177" data-name="Path 177" d="M168.811,171.315h-49.62V140.73H113V38.9c0-10.072,5.729-19.589,16.263-26.889C139.612,4.8,153.565.554,168.534,0h.277V171.315Zm-49.066-.554h48.512V.554c-14.784.554-28.553,4.713-38.809,11.828-10.349,7.207-15.986,16.54-15.986,26.427V140.175h6.191v30.585Z" transform="translate(-113)" fill="#abacad"/>
      </g>
    </g>
    <g id="Group_401" data-name="Group 401" transform="translate(65.236 140.175)">
      <g id="Group_395" data-name="Group 395" transform="translate(8.686 9.98)">
        <path id="Path_178" data-name="Path 178" d="M108.46,183.66H80V162.5h28.46Zm-27.906-.554H108V163.054H80.554Z" transform="translate(-80 -162.5)" fill="#abacad"/>
      </g>
      <g id="Group_396" data-name="Group 396">
        <path id="Path_179" data-name="Path 179" d="M116.524,182.84h-6.745V160.016H77.345V182.84H70.6V151.7h46.017v31.14Zm-6.191-.554h5.729V152.254h-45v30.031h5.729V159.462h33.542v22.824Z" transform="translate(-70.6 -151.7)" fill="#abacad"/>
      </g>
      <g id="Group_397" data-name="Group 397" transform="translate(6.191 7.762)">
        <path id="Path_180" data-name="Path 180" d="M110.588,160.4v22.824H108V162.618H80.095v20.606H77.6V160.4Z" transform="translate(-77.323 -160.123)" fill="#abacad"/>
        <path id="Path_181" data-name="Path 181" d="M110.842,183.478h-3.049V162.872H80.349v20.606H77.3V160.1h33.542v23.378Zm-2.587-.554h2.033V160.654H77.854v22.269h1.94V162.318h28.46Z" transform="translate(-77.3 -160.1)" fill="#abacad"/>
      </g>
      <g id="Group_400" data-name="Group 400" transform="translate(17.002 19.497)">
        <g id="Group_398" data-name="Group 398">
          <rect id="Rectangle_111" data-name="Rectangle 111" width="5.452" height="11.458" fill="#abacad"/>
        </g>
        <g id="Group_399" data-name="Group 399" transform="translate(6.468)">
          <rect id="Rectangle_112" data-name="Rectangle 112" width="5.452" height="11.458" fill="#abacad"/>
        </g>
      </g>
    </g>
    <g id="Group_404" data-name="Group 404" transform="translate(71.427 62.464)">
      <g id="Group_402" data-name="Group 402">
        <path id="Path_182" data-name="Path 182" d="M110.842,81.183H77.3V67.6h33.542V81.183Zm-33.08-.554h32.526V68.062H77.762Z" transform="translate(-77.3 -67.6)" fill="#abacad"/>
      </g>
      <g id="Group_403" data-name="Group 403" transform="translate(0.185 2.587)">
        <rect id="Rectangle_113" data-name="Rectangle 113" width="32.988" height="8.409" fill="#abacad"/>
      </g>
    </g>
    <g id="Group_412" data-name="Group 412" transform="translate(71.797 85.38)">
      <g id="Group_405" data-name="Group 405" transform="translate(13.86 6.191)">
        <rect id="Rectangle_114" data-name="Rectangle 114" width="5.267" height="48.881" fill="#abacad"/>
      </g>
      <g id="Group_409" data-name="Group 409">
        <g id="Group_406" data-name="Group 406">
          <path id="Path_183" data-name="Path 183" d="M88.6,147.749H77.7V92.4h.277a42.977,42.977,0,0,1,10.442,1.756l.185.092Zm-10.442-.554h9.795V94.618a45.237,45.237,0,0,0-9.795-1.663Z" transform="translate(-77.7 -92.4)" fill="#abacad"/>
        </g>
        <g id="Group_407" data-name="Group 407" transform="translate(21.992)">
          <path id="Path_184" data-name="Path 184" d="M112.4,147.749H101.5v-53.5l.185-.092A42.978,42.978,0,0,1,112.126,92.4h.277Zm-10.349-.554h9.795V92.954a44.4,44.4,0,0,0-9.795,1.663Z" transform="translate(-101.5 -92.4)" fill="#abacad"/>
        </g>
        <g id="Group_408" data-name="Group 408" transform="translate(10.349 1.756)">
          <path id="Path_185" data-name="Path 185" d="M101.1,147.894H88.9V94.3h12.2Zm-11.643-.554h11.181V94.854H89.454Z" transform="translate(-88.9 -94.3)" fill="#abacad"/>
        </g>
      </g>
      <g id="Group_410" data-name="Group 410" transform="translate(2.864 6.191)">
        <path id="Path_186" data-name="Path 186" d="M85.7,147.889V99.1l-4.9,1.478v47.31Z" transform="translate(-80.8 -99.1)" fill="#abacad"/>
      </g>
      <g id="Group_411" data-name="Group 411" transform="translate(25.041 6.283)">
        <path id="Path_187" data-name="Path 187" d="M104.8,147.989V99.2l4.9,1.478v47.31Z" transform="translate(-104.8 -99.2)" fill="#abacad"/>
      </g>
    </g>
  </g>
</svg>
