<svg xmlns="http://www.w3.org/2000/svg" width="11.876" height="11.875" viewBox="0 0 11.876 11.875">
  <g id="cancel" transform="translate(0 0.984)">
    <g id="Group_328" data-name="Group 328" transform="translate(0 -0.984)">
      <path id="Path_96" data-name="Path 96" d="M7.246,5.954l4.44-4.44a.651.651,0,0,0,0-.919L11.3.206a.651.651,0,0,0-.919,0l-4.44,4.44L1.5.206a.651.651,0,0,0-.918,0L.19.595a.65.65,0,0,0,0,.919l4.44,4.44L.19,10.394a.651.651,0,0,0,0,.919l.389.389a.651.651,0,0,0,.918,0l4.44-4.44,4.44,4.44a.644.644,0,0,0,.459.19h0a.645.645,0,0,0,.459-.19l.389-.389a.651.651,0,0,0,0-.919Z" transform="translate(0 -0.016)" fill="#fff"/>
    </g>
  </g>
</svg>
