<svg id="Слой_1" data-name="Слой 1" xmlns="http://www.w3.org/2000/svg" viewBox="0 0 15.52 19.25"><defs><style>.cls-1{fill:#b5d8ff;}</style></defs><title>Монтажная область 1 копия</title><g id="Icon_feather-bookmark" data-name="Icon feather-bookmark"><path class="cls-1" d="M14.66,19.12a.7.7,0,0,1-.37-.11L7.76,14.34,1.23,19a.63.63,0,0,1-.65,0,.62.62,0,0,1-.35-.56V2.73A2.61,2.61,0,0,1,2.83.12h9.86a2.61,2.61,0,0,1,2.6,2.61V18.49a.63.63,0,0,1-.34.56A.59.59,0,0,1,14.66,19.12ZM2.83,1.39A1.34,1.34,0,0,0,1.5,2.73V17.26l5.9-4.21a.62.62,0,0,1,.73,0L14,17.26V2.73a1.34,1.34,0,0,0-1.34-1.34Z"/><path class="cls-1" d="M.86,19.24a.84.84,0,0,1-.34-.08.75.75,0,0,1-.4-.67V2.73A2.72,2.72,0,0,1,2.83,0h9.86a2.72,2.72,0,0,1,2.72,2.72V18.49a.75.75,0,0,1-1.18.61L7.76,14.48,1.3,19.1A.77.77,0,0,1,.86,19.24Zm2-19A2.48,2.48,0,0,0,.35,2.73V18.49A.52.52,0,0,0,.63,19a.51.51,0,0,0,.53,0l6.6-4.71.07.05,6.53,4.66a.52.52,0,0,0,.54,0,.52.52,0,0,0,.28-.46V2.73A2.49,2.49,0,0,0,12.69.24ZM14.14,17.49,8.06,13.14a.55.55,0,0,0-.6,0L1.38,17.49V2.73A1.45,1.45,0,0,1,2.83,1.27h9.86a1.45,1.45,0,0,1,1.45,1.46ZM2.83,1.5A1.23,1.23,0,0,0,1.61,2.73V17L7.33,13a.74.74,0,0,1,.87,0L13.91,17V2.73A1.23,1.23,0,0,0,12.69,1.5Z"/></g></svg>