<svg id="active" xmlns="http://www.w3.org/2000/svg" width="20.588" height="20.588" viewBox="0 0 20.588 20.588">
  <path id="Path_61" data-name="Path 61" d="M136.549,419.86a3.221,3.221,0,0,1-3.217-3.217.643.643,0,0,1,1.287,0,1.93,1.93,0,1,0,3.86,0,.643.643,0,0,1,1.287,0A3.221,3.221,0,0,1,136.549,419.86Zm0,0" transform="translate(-127.971 -399.273)" fill="#b5d8ff"/>
  <path id="Path_62" data-name="Path 62" d="M15.655,83.134H1.5a1.5,1.5,0,0,1-.976-2.642.593.593,0,0,1,.069-.052,5.765,5.765,0,0,0,1.98-4.349V73.7a5.966,5.966,0,0,1,4.6-5.833.644.644,0,0,1,.3,1.252A4.684,4.684,0,0,0,3.86,73.7v2.393a7.055,7.055,0,0,1-2.49,5.379c-.013.01-.024.02-.038.029a.212.212,0,0,0-.045.133.217.217,0,0,0,.214.214H15.655a.217.217,0,0,0,.215-.214.2.2,0,0,0-.046-.133l-.037-.029a7,7,0,0,1-1.8-2.351.643.643,0,1,1,1.162-.55,5.734,5.734,0,0,0,1.418,1.874.743.743,0,0,1,.065.049,1.5,1.5,0,0,1-.974,2.642Zm0,0" transform="translate(0 -65.12)" fill="#b5d8ff"/>
  <path id="Path_63" data-name="Path 63" d="M240.244,11.152a5.576,5.576,0,1,1,5.576-5.576A5.582,5.582,0,0,1,240.244,11.152Zm0-9.865a4.289,4.289,0,1,0,4.289,4.289A4.294,4.294,0,0,0,240.244,1.287Zm0,0" transform="translate(-225.232)" fill="#b5d8ff"/>
  <path id="Path_64" data-name="Path 64" d="M337.716,90.05a.644.644,0,0,1-.643-.643V86.619h-.429a.643.643,0,0,1,0-1.287h1.072a.644.644,0,0,1,.643.643v3.431A.644.644,0,0,1,337.716,90.05Zm0,0" transform="translate(-322.489 -81.901)" fill="#b5d8ff"/>
</svg>
