<svg xmlns="http://www.w3.org/2000/svg" width="24.216" height="24.243" viewBox="0 0 24.216 24.243">
  <path id="Home-01" d="M34.207,21.2a3.784,3.784,0,0,0-1.245-2.933c-2.732-2.5-5.463-5.006-8.234-7.467a3.848,3.848,0,0,0-5.257.015q-4.127,3.677-8.19,7.432A3.842,3.842,0,0,0,10,21.224c.01,2.879.034,5.759-.01,8.638a4.175,4.175,0,0,0,4.13,4.154c2.663-.064,5.326-.015,7.993-.015s5.365,0,8.047,0a3.471,3.471,0,0,0,1.058-.133A4.086,4.086,0,0,0,34.2,29.788C34.207,26.929,34.2,24.064,34.207,21.2Zm-2.559,8.81a1.615,1.615,0,0,1-1.831,1.678c-2.594,0-5.183,0-7.777,0v0H14.426c-1.378,0-1.979-.6-1.979-1.974,0-2.751.015-5.508-.01-8.259a2.122,2.122,0,0,1,.773-1.737c2.564-2.284,5.1-4.607,7.644-6.91a1.588,1.588,0,0,1,2.323-.049q3.928,3.544,7.836,7.107a2.07,2.07,0,0,1,.645,1.6C31.668,24.33,31.673,27.17,31.648,30.015Z" transform="translate(-9.991 -9.774)" fill="#fff"/>
</svg>
