<svg xmlns="http://www.w3.org/2000/svg" width="20.886" height="20.878" viewBox="0 0 20.886 20.878">
  <g id="saylanan_2-01-01" data-name="saylanan 2-01-01" transform="translate(0 0)">
    <g id="Group_123" data-name="Group 123" transform="translate(0 0)">
      <path id="Path_59" data-name="Path 59" d="M62.748,49.648c0-.38,0-.756,0-1.131A6.314,6.314,0,0,0,56.223,42c-2.536-.015-5.2-.015-7.91,0A6.284,6.284,0,0,0,41.9,48.419c-.02.922-.015,1.858-.015,2.765v.79h0v1.682c0,.878,0,1.785,0,2.677a6.337,6.337,0,0,0,6.525,6.52c1.3.01,2.619.01,3.97.01,1.18,0,2.385,0,3.628-.01a8.3,8.3,0,0,0,1.717-.151,6.318,6.318,0,0,0,3.589-2.16,6.419,6.419,0,0,0,1.424-3.989C62.773,54.252,62.763,51.911,62.748,49.648ZM61.8,56.539A5.323,5.323,0,0,1,57.516,61.8a7.584,7.584,0,0,1-1.522.132c-2.668.015-5.15.01-7.588,0a5.417,5.417,0,0,1-5.6-5.6c-.01-.888,0-1.79,0-2.668V52.9h.01v-.463c0-.419,0-.839,0-1.258,0-.9,0-1.834,0-2.755a5.389,5.389,0,0,1,5.5-5.5c2.711-.024,5.364-.024,7.9,0a5.4,5.4,0,0,1,5.6,5.6c0,.38,0,.756,0,1.136C61.837,51.911,61.846,54.247,61.8,56.539Z" transform="translate(-41.875 -41.986)" fill="#b5d8ff"/>
      <path id="Path_60" data-name="Path 60" d="M149.34,166.567a1.648,1.648,0,0,0-2.336-.059c-.283.244-.556.5-.819.751-.132.122-.258.244-.39.366-.878.81-1.751,1.619-2.648,2.443l-.688.634-.156-.215c-.346-.478-.668-.931-1.014-1.38a1.591,1.591,0,0,0-2.229-.415,1.615,1.615,0,0,0-.707,1.039,1.652,1.652,0,0,0,.288,1.258c.751,1.092,1.507,2.136,2.248,3.116a1.663,1.663,0,0,0,1.17.712,1.19,1.19,0,0,0,.132,0,1.649,1.649,0,0,0,1.122-.478c1.882-1.717,3.867-3.55,5.891-5.452A1.574,1.574,0,0,0,149.34,166.567Zm-.756,1.653c-2.024,1.9-4,3.731-5.881,5.442a.756.756,0,0,1-.546.234.789.789,0,0,1-.517-.351c-.731-.966-1.478-2-2.224-3.082a.735.735,0,0,1-.141-.556.692.692,0,0,1,.312-.439.742.742,0,0,1,.4-.137.751.751,0,0,1,.58.341c.336.439.658.888,1,1.361.151.21.3.424.463.644l.307.419,1.453-1.341,2.648-2.443c.132-.122.263-.244.4-.371.258-.244.522-.493.79-.727a.721.721,0,0,1,1.044-.015A.669.669,0,0,1,148.584,168.22Z" transform="translate(-133.622 -160.002)" fill="#b5d8ff"/>
    </g>
  </g>
</svg>
