<svg xmlns="http://www.w3.org/2000/svg" width="18.624" height="18.624" viewBox="0 0 18.624 18.624">
  <g id="user_1_" data-name="user (1)" transform="translate(0)">
    <g id="Group_122" data-name="Group 122" transform="translate(0)">
      <path id="Path_56" data-name="Path 56" d="M15.9,12.039a9.276,9.276,0,0,0-3.539-2.22,5.384,5.384,0,1,0-6.092,0A9.327,9.327,0,0,0,0,18.624H1.455a7.857,7.857,0,0,1,15.714,0h1.455A9.251,9.251,0,0,0,15.9,12.039ZM9.312,9.312A3.928,3.928,0,1,1,13.24,5.383,3.933,3.933,0,0,1,9.312,9.312Z" transform="translate(0)" fill="#b5d8ff"/>
    </g>
  </g>
</svg>
