<svg id="Слой_1" data-name="Слой 1" xmlns="http://www.w3.org/2000/svg" viewBox="0 0 19.21 19.25"><defs><style>.cls-1{fill:#b5d8ff;}</style></defs><title>Монтажная область 1 копия 2</title><g id="saylanan_2-01-01" data-name="saylanan 2-01-01"><g id="Group_123" data-name="Group 123"><g id="Path_59" data-name="Path 59"><path class="cls-1" d="M18.78,7.18v-1A5.55,5.55,0,0,0,13.41.45a2.29,2.29,0,0,0-.37,0c-2.23,0-4.58,0-7,0A5.52,5.52,0,0,0,.44,5.86a1,1,0,0,0,0,.24c0,.81,0,1.63,0,2.43v.7h0v3.83A5.58,5.58,0,0,0,5.83,18.8h7a7.64,7.64,0,0,0,1.51-.13,5.5,5.5,0,0,0,4.41-5.41C18.8,11.23,18.8,9.17,18.78,7.18ZM18,13.24a4.69,4.69,0,0,1-3.77,4.63,6,6,0,0,1-1.34.12c-2.35,0-4.53,0-6.68,0a4.77,4.77,0,0,1-4.93-4.6v-.33c0-.78,0-1.57,0-2.35V10h0V6.1A4.75,4.75,0,0,1,5.88,1.26h.2c2.39,0,4.72,0,7,0A4.75,4.75,0,0,1,18,5.83a2.16,2.16,0,0,1,0,.36v1C18,9.17,18,11.23,18,13.24Z"/><path class="cls-1" d="M9.66,19.12H6.16a1.93,1.93,0,0,1-.34,0A5.88,5.88,0,0,1,.11,13.05V8.12c0-.67,0-1.36,0-2V5.85A5.86,5.86,0,0,1,6,.13h.13c2.37,0,4.72,0,7,0h.38A5.89,5.89,0,0,1,19.1,6.19v1c0,2,0,4,0,6.08A6,6,0,0,1,17.77,17a5.88,5.88,0,0,1-3.34,2,6.54,6.54,0,0,1-1.58.14Zm-3.51-.64h6.7a6.36,6.36,0,0,0,1.45-.12,5.31,5.31,0,0,0,3-1.79,5.42,5.42,0,0,0,1.18-3.32c0-2,0-4.12,0-6.07v-1A5.24,5.24,0,0,0,13.4.76h-.35c-2.24,0-4.59,0-7,0A5.21,5.21,0,0,0,.75,5.87v.22c0,.68,0,1.36,0,2v4.94a5.26,5.26,0,0,0,5.1,5.43Zm3.62-.17H6.16A5.07,5.07,0,0,1,.92,13.4a2,2,0,0,1,0-.35c0-.51,0-1,0-1.56V6.1A5,5,0,0,1,5.88,1h.21c2.37,0,4.72,0,7,0a5.08,5.08,0,0,1,5.24,4.87V7.19c0,1.82,0,4,0,6.05a5,5,0,0,1-4,4.94,6.66,6.66,0,0,1-1.41.12Zm-3.62-.64c2.16,0,4.34,0,6.69,0a5.45,5.45,0,0,0,1.28-.11,4.35,4.35,0,0,0,3.51-4.31h0c.05-2.08,0-4.23,0-6V5.84a4.43,4.43,0,0,0-4.6-4.26c-2.25,0-4.59,0-7,0a.6.6,0,0,0-.19,0A4.42,4.42,0,0,0,1.56,6.09l0,5.4c0,.52,0,1,0,1.57a1.71,1.71,0,0,0,0,.32A4.44,4.44,0,0,0,6.15,17.67Z"/></g><g id="Path_60" data-name="Path 60"><path class="cls-1" d="M14.25,6.21a1.45,1.45,0,0,0-2.05,0h0l-.72.66-.34.32L8.8,9.29l-.61.56-.14-.19c-.3-.42-.58-.82-.89-1.21a1.4,1.4,0,0,0-1.94-.38h0a1.41,1.41,0,0,0-.37,2c.66,1,1.33,1.88,2,2.75a1.48,1.48,0,0,0,1,.62H8a1.44,1.44,0,0,0,1-.42c1.66-1.51,3.41-3.12,5.19-4.8a1.38,1.38,0,0,0,.2-1.94Zm-.67,1.46C11.8,9.34,10.06,11,8.41,12.46a.68.68,0,0,1-.49.2.65.65,0,0,1-.45-.31c-.64-.85-1.3-1.76-2-2.71a.65.65,0,0,1-.12-.49.56.56,0,0,1,.27-.38A.59.59,0,0,1,6,8.65a.66.66,0,0,1,.52.3c.29.38.57.78.88,1.19l.4.57.27.37L9.36,9.9l2.33-2.15L12,7.42l.7-.64a.64.64,0,0,1,.9,0l0,0a.59.59,0,0,1,0,.83Z"/><path class="cls-1" d="M7.9,13.79H7.82A1.81,1.81,0,0,1,6.55,13c-.67-.89-1.34-1.81-2-2.74a1.76,1.76,0,0,1-.3-1.34A1.74,1.74,0,0,1,5,7.82a1.72,1.72,0,0,1,2.39.45c.23.3.46.62.7,1l.12.16,3-2.79c.23-.22.47-.45.72-.67A1.77,1.77,0,0,1,14.47,6l.11.11a1.68,1.68,0,0,1,.36,1.24,1.64,1.64,0,0,1-.62,1.15c-1.76,1.66-3.51,3.27-5.17,4.79a1.77,1.77,0,0,1-1.19.5ZM6,8.15a1.13,1.13,0,0,0-.6.18,1.17,1.17,0,0,0-.51.73,1.19,1.19,0,0,0,.2.86c.64.92,1.3,1.84,2,2.74a1.16,1.16,0,0,0,.82.5h.06a1.18,1.18,0,0,0,.78-.33c1.67-1.52,3.41-3.13,5.19-4.8a1.11,1.11,0,0,0,.41-.74,1.05,1.05,0,0,0-.24-.79L14,6.43h0a1.14,1.14,0,0,0-1.61,0c-.26.23-.5.45-.72.67L8.14,10.32l-.53-.73c-.23-.32-.46-.64-.7-.95A1.1,1.1,0,0,0,6,8.15ZM7.92,13a1,1,0,0,1-.72-.46c-.63-.84-1.29-1.75-1.95-2.7a1,1,0,0,1-.17-.71A1,1,0,0,1,6,8.33a1,1,0,0,1,.79.44l.75,1,.23.33.29.4.07.09,3.7-3.42c.23-.21.46-.44.7-.64a.94.94,0,0,1,1.32,0,.91.91,0,0,1,0,1.3.43.43,0,0,1-.1.09c-1.91,1.8-3.6,3.36-5.16,4.78A1,1,0,0,1,7.92,13ZM6,9A.27.27,0,0,0,5.85,9a.31.31,0,0,0-.16.2.41.41,0,0,0,.07.23c.66,1,1.31,1.86,2,2.71a.4.4,0,0,0,.26.19.37.37,0,0,0,.2-.11c1.58-1.44,3.27-3,5.19-4.8l0,0,0,0a.29.29,0,0,0,0-.39A.33.33,0,0,0,13,7c-.26.22-.49.44-.71.65L8,11.55l-.48-.65c-.11-.14-.2-.28-.3-.42L7,10.16l-.75-1A.4.4,0,0,0,6,9Z"/></g></g></g></svg>