<svg xmlns="http://www.w3.org/2000/svg" width="18" height="16" viewBox="0 0 18 16">
  <g id="upload" transform="translate(-441.656 -0.325)">
    <path id="Path_30" data-name="Path 30" d="M459.6,58.479c-.046.23-.091.476-.122.705-.137.771-.258,1.542-.4,2.313a1.215,1.215,0,0,1-1.049.968H443.365a1.185,1.185,0,0,1-1.064-.623,1.9,1.9,0,0,1-.167-.574c-.152-.918-.319-1.837-.456-2.755a1.307,1.307,0,0,1,.517-1.312c.9-.689,1.793-1.345,2.705-2.017a.354.354,0,0,1,.182-.066h1.565s0,.016.015.016l-2.781,2.411v.016h3.009a.34.34,0,0,1,.38.279c.258.689.532,1.378.79,2.067.03.066.061.1.137.1h4.909c.076,0,.106-.016.137-.1.258-.705.532-1.394.805-2.1.076-.18.167-.262.35-.246.973.016,1.96.033,2.933.033h.137c-.957-.836-1.884-1.657-2.827-2.477.03,0,.046-.016.076-.016h1.55a.233.233,0,0,1,.137.049c.912.672,1.808,1.345,2.72,2.034a1.406,1.406,0,0,1,.517.886c0,.016.015.049.015.066A.792.792,0,0,0,459.6,58.479Z" transform="translate(0 -46.139)" fill="#0057b1"/>
    <path id="Path_31" data-name="Path 31" d="M472.882,5.077h-2.547c-.028,0-.056.016-.07,0-.042-.016-.084-.033-.1-.066a.153.153,0,0,1,.028-.131c.1-.115.2-.213.3-.328,1.238-1.361,2.49-2.723,3.728-4.084l.028-.033a.256.256,0,0,1,.422,0c.253.279.521.558.774.853,1.083,1.181,2.167,2.378,3.25,3.559a.233.233,0,0,1,.056.066.12.12,0,0,1-.056.18h-2.673V9.571c0,.3-.1.41-.352.41h-2.448c-.239,0-.338-.115-.338-.41V5.077Z" transform="translate(-23.83)" fill="#0057b1"/>
  </g>
</svg>
